<?xml version="1.0" encoding="utf-8"?>
<!-- Generator: Adobe Illustrator 24.0.1, SVG Export Plug-In . SVG Version: 6.00 Build 0)  -->
<svg version="1.1" id="Layer_1" xmlns="http://www.w3.org/2000/svg" xmlns:xlink="http://www.w3.org/1999/xlink" x="0px" y="0px"
	 viewBox="0 0 91.7 91.7" style="enable-background:new 0 0 91.7 91.7;" xml:space="preserve">
<style type="text/css">
	.st0{fill:#7C8E98;}
</style>
<title>iconInformationAlert</title>
<path class="st0" d="M45.8,8.3C25.1,8.3,8.3,25.1,8.3,45.8s16.8,37.5,37.5,37.5s37.5-16.8,37.5-37.5c0,0,0,0,0,0
	C83.3,25.1,66.5,8.3,45.8,8.3C45.8,8.3,45.8,8.3,45.8,8.3z M45.8,91.7C20.5,91.7,0,71.2,0,45.8C0,20.5,20.5,0,45.8,0
	c25.3,0,45.8,20.5,45.8,45.8C91.7,71.1,71.2,91.7,45.8,91.7C45.9,91.7,45.8,91.7,45.8,91.7z"/>
<path class="st0" d="M45.8,69.8c-2.3,0-4.2-1.9-4.2-4.2v-24c0-2.3,1.9-4.2,4.2-4.2c2.3,0,4.2,1.9,4.2,4.2c0,0,0,0,0,0v24
	C50,67.9,48.1,69.8,45.8,69.8z"/>
<path class="st0" d="M50,28.1c0,5.6-8.3,5.6-8.3,0S50,22.6,50,28.1"/>
<path class="st0" d="M45.8,25c-1.7,0-3.1,1.4-3.1,3.2c0,1.7,1.4,3.1,3.2,3.1c1.7,0,3.1-1.4,3.1-3.1c0-1.7-1.3-3.1-3-3.1
	C45.9,25,45.9,25,45.8,25z M45.8,33.3c-2.9,0-5.2-2.3-5.2-5.2c0-2.9,2.3-5.2,5.2-5.2c2.9,0,5.2,2.3,5.2,5.2c0,0,0,0,0,0
	c0,2.8-2.3,5.2-5.1,5.2C45.9,33.3,45.9,33.3,45.8,33.3z"/>
</svg>
