<svg xmlns="http://www.w3.org/2000/svg" width="227.533" height="50.067" viewBox="0 0 227.533 50.067">
    <defs>
        <clipPath id="9jalsrttda">
            <path data-name="Rectangle 68" style="fill:none" d="M0 0h227.533v50.067H0z"/>
        </clipPath>
    </defs>
    <g data-name="Group 84" style="clip-path:url(#9jalsrttda)">
        <path data-name="Path 7" d="M6.419 34.221a21.442 21.442 0 0 0 15.02 6.089c4.161 0 6.707-1.734 6.707-3.941 0-2.63-3.036-3.67-8.043-4.7C12.348 30.144 1.5 28.208 1.5 17.29 1.48 9.543 8.2 2.87 20.247 2.87c7.543 0 14.106 2.207 19.113 6.43l-6.63 8.474a22.141 22.141 0 0 0-13.261-4.753c-4.026 0-5.573 1.59-5.573 3.594 0 2.419 2.892 3.248 8.11 4.229 7.755 1.59 18.479 3.806 18.479 14.242 0 9.3-6.977 15.426-19.6 15.426C11.358 50.509 4.728 47.6 0 43.177z" transform="translate(0 -.443)" style="fill:#0d66a6"/>
        <path data-name="Path 8" d="M52.47 6.335a6.208 6.208 0 1 1 6.33 6.079h-.125a6.114 6.114 0 0 1-6.207-6.021v-.06m.778 9.472h10.869V49.2H53.248z" transform="translate(-8.095)" style="fill:#0d66a6"/>
        <path data-name="Path 9" d="M90.207 17.707c10.089 0 17.422 7.256 17.422 18.606V38.6H83.365c.634 3.112 3.6 5.92 8.677 5.92a13.651 13.651 0 0 0 8.322-2.833l4.584 6.63c-3.383 2.977-9.024 4.432-14.242 4.432-10.512 0-18.606-6.707-18.606-17.566 0-9.675 7.476-17.489 18.124-17.489m-7 13.98H97.26c-.279-2.351-2.047-5.734-7.053-5.734a6.689 6.689 0 0 0-6.986 5.734" transform="translate(-11.124 -2.729)" style="fill:#0d66a6"/>
        <path data-name="Path 10" d="M119.63 3.65h10.859v16.661a12.687 12.687 0 0 1 10.089-4.77c8.457 0 15.02 6.563 15.02 17.489 0 11.341-6.622 17.566-15.02 17.566a13.134 13.134 0 0 1-10.089-4.7v3.873H119.63zm17.354 37.542c4.3 0 7.544-3.112 7.544-8.161s-3.248-8.051-7.544-8.051a8.779 8.779 0 0 0-6.5 3.036v10.232a8.694 8.694 0 0 0 6.5 2.977" transform="translate(-18.457 -.563)" style="fill:#0d66a6"/>
        <path data-name="Path 11" d="M183.557 17.707c10.089 0 17.43 7.256 17.43 18.606V38.6h-24.272c.634 3.112 3.6 5.92 8.677 5.92a13.651 13.651 0 0 0 8.322-2.833l4.592 6.63c-3.383 2.977-9.032 4.432-14.25 4.432-10.512 0-18.606-6.707-18.606-17.566 0-9.675 7.476-17.489 18.124-17.489M176.6 31.653h14.01c-.279-2.351-2.038-5.734-7.053-5.734a6.681 6.681 0 0 0-6.977 5.734" transform="translate(-25.526 -2.729)" style="fill:#0d66a6"/>
        <path data-name="Path 12" d="M212.98 18.536h10.868v4.229A14.935 14.935 0 0 1 234.5 17.69v10.3a8.84 8.84 0 0 0-2.681-.347c-2.825 0-6.563 1.176-7.967 3.112V51.9H212.98z" transform="translate(-32.859 -2.729)" style="fill:#0d66a6"/>
        <path data-name="Path 13" d="M245.909 41.428V26.281h-5.649v-9.26h5.649V7.87H256.7v9.151h6.909v9.3H256.7v12.13c0 1.937 1.125 3.383 3.028 3.383a4.308 4.308 0 0 0 2.757-.846l2.114 8.017c-1.345 1.243-4.026 2.216-8.043 2.216-6.91 0-10.648-3.383-10.648-9.819" transform="translate(-37.067 -1.214)" style="fill:#0d66a6"/>
    </g>
</svg>
